<svg width="294" height="226" viewBox="0 0 294 226" fill="none" xmlns="http://www.w3.org/2000/svg">
<g clip-path="url(#clip0_2615_2294)">
<path d="M154.402 157.77C161.045 153.7 165.562 150.85 167.954 149.222L172.603 148.001L183.497 142.031L184.693 140.809L186.022 142.031H189.609L194.524 140.809L199.307 143.252L194.524 151.936V153.157C209.493 145.739 221.228 142.031 229.731 142.031H230.927L233.318 144.473L224.815 159.398L226.011 160.62L235.842 158.991L241.023 160.213L233.185 165.097L226.011 166.59C220.342 166.318 216.711 164.328 215.117 160.62L219.9 151.936V150.714L183.497 165.64C178.626 164.826 176.19 163.559 176.19 161.841V155.735C179.025 155.735 181.062 153.654 182.302 149.493L170.079 155.464L158.122 160.077L154.402 157.77Z" fill="#200A05"/>
<path d="M161.889 128.427L162.92 129.646L164.209 129.89L165.627 128.792L166.787 130.134L166.529 131.354C164.037 131.029 161.502 134.322 158.924 141.234L155.186 140.868L151.964 136.843L152.221 134.525C152.393 133.143 155.616 131.11 161.889 128.427ZM143.069 148.064L146.808 148.552L147.968 149.772L149.257 150.016L125.926 173.8L124.637 173.556L122.445 170.995L122.574 169.775C123.519 164.083 130.351 156.846 143.069 148.064Z" fill="#200A05"/>
<path d="M41.6007 57.1884C43.8798 55.5002 46.2855 56.3443 48.8178 59.7208L55.6549 76.0543L58.5671 76.5608C56.5412 78.0802 58.9047 93.0209 65.6575 121.383C63.6317 122.902 64.0537 130.626 66.9236 144.554L69.2027 190.895L83.7634 185.324L173.28 21.356L85.536 184.058L166.063 9.96049C183.536 -5.96059e-07 194.087 -2.49012 197.716 2.49012L197.337 5.4023L198.603 7.17493L205.44 12.8727L204.427 18.697C197.674 9.58064 190.288 8.01904 182.269 14.0122L176.572 20.7229L175.306 19.0769L139.474 105.049L93.8925 190.389L86.2957 199.379C81.3999 203.008 72.8323 205.794 60.5929 207.735C58.0606 204.359 57.0055 180.26 57.4275 135.437L39.8281 58.4546L41.6007 57.1884Z" fill="#200A05"/>
<g filter="url(#filter0_g_2615_2294)">
<path d="M272.73 129.293C271.546 124.873 267.912 120.491 260.625 116.719C253.334 112.946 243.085 110.186 230.33 108.824C204.872 106.106 171.003 109.119 134.913 118.789C98.8226 128.459 67.9832 142.786 47.2945 157.869C36.9293 165.426 29.4335 172.94 25.006 179.854C20.5814 186.764 19.6255 192.376 20.8096 196.796C21.994 201.215 25.6273 205.597 32.9142 209.369C40.2055 213.143 50.4542 215.902 63.2091 217.264C88.6676 219.982 122.538 216.967 158.628 207.296L160.52 214.356L157.082 215.26C85.5873 233.67 22.2388 226.697 13.9389 199.347L13.7496 198.687C6.15603 170.347 59.5561 131.414 133.021 111.729L136.459 110.825C208.526 92.2679 272.315 99.5038 279.79 127.401L279.958 128.066C286.549 156.347 233.41 194.825 160.52 214.356L158.628 207.296C194.718 197.626 225.557 183.302 246.245 168.219C256.61 160.662 264.106 153.148 268.534 146.234C272.958 139.324 273.914 133.712 272.73 129.293Z" fill="#200A05"/>
</g>
</g>
<defs>
<filter id="filter0_g_2615_2294" x="11.7565" y="99.2842" width="270.028" height="127.518" filterUnits="userSpaceOnUse" color-interpolation-filters="sRGB">
<feFlood flood-opacity="0" result="BackgroundImageFix"/>
<feBlend mode="normal" in="SourceGraphic" in2="BackgroundImageFix" result="shape"/>
<feTurbulence type="fractalNoise" baseFrequency="0.073269613087177277 0.073269613087177277" numOctaves="3" seed="7595" />
<feDisplacementMap in="shape" scale="2.5494880676269531" xChannelSelector="R" yChannelSelector="G" result="displacedImage" width="100%" height="100%" />
<feMerge result="effect1_texture_2615_2294">
<feMergeNode in="displacedImage"/>
</feMerge>
</filter>
<clipPath id="clip0_2615_2294">
<rect width="294" height="226" fill="white"/>
</clipPath>
</defs>
</svg>
