<svg width="21" height="21" viewBox="0 0 21 21" fill="none" xmlns="http://www.w3.org/2000/svg">
<path d="M15.6953 0C18.584 0 20.9344 2.35068 20.9346 5.24023V14.8096C20.9345 17.6992 18.5841 20.0498 15.6953 20.0498H5.23926C2.35046 20.0498 2.53364e-05 17.6992 0 14.8096V5.24023C0.000130817 2.35068 2.35053 0 5.23926 0H15.6953ZM5.23926 1.84863C3.3699 1.84863 1.84779 3.37035 1.84766 5.24023V14.8096C1.84768 16.6795 3.36983 18.2012 5.23926 18.2012H15.6953C17.5647 18.2012 19.0859 16.6795 19.0859 14.8096V5.24023C19.0858 3.37035 17.5647 1.84863 15.6953 1.84863H5.23926ZM10.4746 5.14746C13.162 5.14746 15.3474 7.33332 15.3477 10.0215C15.3477 12.7098 13.161 14.8965 10.4746 14.8965C7.78709 14.8965 5.60156 12.7098 5.60156 10.0215C5.60177 7.33334 7.78722 5.14749 10.4746 5.14746ZM10.4746 6.99707C8.80646 6.9971 7.44922 8.35479 7.44922 10.0234C7.44943 11.6919 8.80659 13.0488 10.4746 13.0488C12.1427 13.0488 13.4998 11.6919 13.5 10.0234C13.5 8.35478 12.1428 6.99707 10.4746 6.99707ZM15.7969 3.30762C16.5214 3.30762 17.1104 3.89631 17.1104 4.62109C17.1103 5.34581 16.5202 5.93457 15.7969 5.93457C15.0726 5.93431 14.4845 5.34564 14.4844 4.62109C14.4844 3.89647 15.0725 3.30788 15.7969 3.30762Z" fill="#200A05"/>
</svg>
