<svg width="27" height="27" viewBox="0 0 27 27" fill="none" xmlns="http://www.w3.org/2000/svg">
<path d="M22.5 7.875H4.5V20.0025C4.5 21.2839 4.5 21.9246 4.75332 22.4121C4.96679 22.8231 5.30186 23.1582 5.71281 23.3716C6.20047 23.625 6.84115 23.625 8.1225 23.625H18.8775C20.1589 23.625 20.7996 23.625 21.2871 23.3716C21.6981 23.1582 22.0332 22.8231 22.2466 22.4121C22.5 21.9246 22.5 21.2839 22.5 20.0025V7.875Z" stroke="#200A05" stroke-width="1.5" stroke-linecap="round"/>
<path d="M18.8101 3H8.18987C7.81187 3 7.62287 3 7.45155 3.05574C7.30615 3.10304 7.17074 3.17932 7.05271 3.28042C6.9136 3.39956 6.80877 3.5651 6.59909 3.89616L4 8H23L20.4009 3.89616C20.1912 3.5651 20.0864 3.39956 19.9473 3.28042C19.8293 3.17932 19.6939 3.10304 19.5484 3.05574C19.3772 3 19.1881 3 18.8101 3Z" stroke="#200A05" stroke-width="1.5" stroke-linecap="round"/>
<path d="M9 11.25C10.6249 15.3122 16.3752 15.3122 18 11.25" stroke="#200A05" stroke-width="1.5" stroke-linecap="round"/>
</svg>
