<svg width="34" height="29" viewBox="0 0 34 29" fill="none" xmlns="http://www.w3.org/2000/svg">
<g filter="url(#filter0_g_2440_8786)">
<path d="M18.9408 1.77294C21.0371 0.577967 22.3029 0.279202 22.7386 0.876452L22.6937 1.22606L22.8451 1.43895L23.6654 2.12255L23.5443 2.82176C22.734 1.72784 21.8474 1.54011 20.8851 2.25926L20.2015 3.06493L20.0502 2.86669L15.7504 13.1831L15.3773 13.8794L15.389 13.8774C24.0368 11.6507 31.6913 12.5192 32.5882 15.8667L32.6088 15.9458C33.3996 19.3393 27.0231 23.9566 18.2767 26.3003L17.8636 26.4087C9.28451 28.6178 1.68284 27.7814 0.686877 24.4995L0.664416 24.4204C0.116135 22.3742 2.21821 19.8687 5.89977 17.6821C5.90147 17.4053 5.90191 17.121 5.90465 16.8296L3.79332 7.59227L4.00524 7.43993C4.27865 7.2374 4.56766 7.33873 4.87145 7.74364L5.69176 9.7036L6.04137 9.76512C5.79872 9.94848 6.08195 11.741 6.89196 15.1431C6.69125 15.2939 6.69277 15.9527 6.89293 17.1196C8.66838 16.1639 10.7451 15.2881 13.0248 14.56L18.9408 1.77294ZM26.6537 13.6372C23.5988 13.311 19.5341 13.6721 15.2035 14.8325C15.0715 14.8679 14.9407 14.9055 14.8099 14.9419L10.2806 23.4233L9.36852 24.5024C8.781 24.9379 7.75302 25.2724 6.28453 25.5054C6.0183 25.1504 5.888 22.8862 5.89391 18.7134C5.46659 18.9803 5.06384 19.2493 4.68981 19.522C3.44602 20.4288 2.54628 21.331 2.015 22.1606C1.48431 22.9895 1.36923 23.6627 1.5111 24.1929C1.65322 24.7232 2.08981 25.2491 2.96422 25.7016C3.8391 26.1545 5.06856 26.4865 6.59899 26.6499C9.65389 26.976 13.7185 26.614 18.0492 25.4536C22.3798 24.2932 26.0803 22.574 28.5629 20.7641C29.8065 19.8574 30.7064 18.956 31.2377 18.1265C31.7686 17.2973 31.8836 16.6236 31.7416 16.0932C31.5995 15.5629 31.1629 15.0371 30.2884 14.5845C29.4136 14.1317 28.184 13.8006 26.6537 13.6372ZM12.5209 15.6499C10.4777 16.3476 8.62842 17.1625 7.04918 18.0347L7.31774 23.4839L9.06481 22.8159L9.99645 21.1079L12.5209 15.6499ZM16.6283 18.4028L16.767 18.5493L16.9222 18.5786L14.1224 21.4321L13.9681 21.4028L13.7045 21.0952L13.7201 20.9497C13.8335 20.2667 14.6539 19.398 16.18 18.3442L16.6283 18.4028ZM22.9281 17.7681L22.3539 18.81V18.9565C24.1499 18.0665 25.5582 17.6216 26.5785 17.6216H26.722L27.0091 17.9145L25.9886 19.7056L26.1322 19.852L27.3119 19.6567L27.9339 19.8032L26.9925 20.3901L26.1322 20.5688C25.452 20.5363 25.0159 20.2971 24.8246 19.852L25.3988 18.81V18.6636L21.0306 20.4546C20.4461 20.3569 20.1537 20.2048 20.1537 19.9985V19.2661C20.4938 19.2661 20.7383 19.0164 20.8871 18.5171L19.4203 19.2339L17.9857 19.7876L17.5394 19.5102C18.3364 19.0219 18.8784 18.6802 19.1654 18.4848L19.723 18.3384L21.0306 17.6216L21.1742 17.4751L21.3334 17.6216H21.764L22.3539 17.4751L22.9281 17.7681ZM18.5619 16.1343L18.7162 16.1636L18.8861 16.0317L19.0257 16.1929L18.9945 16.3393C18.6955 16.3004 18.3917 16.6956 18.0824 17.5249L17.6332 17.4809L17.2464 16.9975L17.2777 16.7192C17.2986 16.5534 17.6854 16.3096 18.4379 15.9878L18.5619 16.1343Z" fill="#200A05"/>
</g>
<defs>
<filter id="filter0_g_2440_8786" x="0.000252306" y="8.16584e-06" width="33.2534" height="28.2186" filterUnits="userSpaceOnUse" color-interpolation-filters="sRGB">
<feFlood flood-opacity="0" result="BackgroundImageFix"/>
<feBlend mode="normal" in="SourceGraphic" in2="BackgroundImageFix" result="shape"/>
<feTurbulence type="fractalNoise" baseFrequency="0.16162727773189545 0.16162727773189545" numOctaves="3" seed="7595" />
<feDisplacementMap in="shape" scale="1.1557453870773315" xChannelSelector="R" yChannelSelector="G" result="displacedImage" width="100%" height="100%" />
<feMerge result="effect1_texture_2440_8786">
<feMergeNode in="displacedImage"/>
</feMerge>
</filter>
</defs>
</svg>
