<svg width="19" height="21" viewBox="0 0 19 21" fill="none" xmlns="http://www.w3.org/2000/svg">
<path d="M16.932 2.39149C17.2633 2.32861 17.6291 2.303 17.9467 2.44032C18.0564 2.48829 18.1584 2.55628 18.2426 2.64051C18.6451 3.03928 18.5885 3.69413 18.5033 4.25477C17.9096 8.16313 17.3158 12.073 16.7211 15.9813C16.6401 16.5175 16.5289 17.1062 16.1058 17.4452C15.7477 17.7316 15.2384 17.7639 14.7963 17.6425C14.3539 17.5199 13.9641 17.2623 13.5814 17.0097C11.9944 15.9584 10.4058 14.9076 8.81873 13.8563C8.44147 13.6069 8.0215 13.2801 8.02576 12.827C8.02797 12.5542 8.19156 12.311 8.35779 12.0946C9.73698 10.295 11.727 9.05813 13.2074 7.34168C13.4162 7.09962 13.58 6.66295 13.2933 6.52332C13.1228 6.44023 12.9265 6.55335 12.7709 6.66102C10.8141 8.02026 8.85847 9.38088 6.90173 10.7401C6.26342 11.1836 5.59395 11.6391 4.82459 11.7479C4.13605 11.846 3.44289 11.6541 2.77673 11.4579C2.2184 11.2938 1.66098 11.1258 1.10584 10.952C0.81075 10.8604 0.505763 10.7613 0.277711 10.5536C0.0496631 10.3457 -0.0813385 9.99581 0.0560318 9.71864C0.142365 9.54485 0.309855 9.43515 0.485719 9.34559L0.487672 9.34657C0.53029 9.32525 0.573073 9.30423 0.614626 9.28504C1.33704 8.95038 2.06923 8.63746 2.80017 8.3241C2.83954 8.3241 2.90541 8.27759 2.94275 8.26258C2.99924 8.23806 3.05618 8.21484 3.11267 8.19032C3.22135 8.14342 3.33026 8.09756 3.43787 8.05067C3.65523 7.95794 3.87187 7.86507 4.08923 7.77235L5.39002 7.21473C6.25761 6.84371 7.12691 6.47149 7.99451 6.10047C8.86191 5.72953 9.73063 5.35813 10.598 4.98719C11.4655 4.61623 12.3341 4.2439 13.2015 3.87293C14.0691 3.50191 14.9384 3.1297 15.806 2.75867C15.9989 2.67552 16.2077 2.55175 16.4144 2.51551C16.5881 2.4846 16.7573 2.42454 16.932 2.39149Z" fill="#200A05"/>
</svg>
